<mxfile host="65bd71144e">
    <diagram id="6x9uRj_ZOZICqu80oVLi" name="Page-1">
        <mxGraphModel dx="2310" dy="1320" grid="1" gridSize="10" guides="1" tooltips="1" connect="1" arrows="1" fold="1" page="1" pageScale="1" pageWidth="827" pageHeight="1169" math="0" shadow="0">
            <root>
                <mxCell id="0"/>
                <mxCell id="1" parent="0"/>
                <mxCell id="QpuBEoRMAiUXIP9vKoB7-7" value="" style="rounded=1;whiteSpace=wrap;html=1;" parent="1" vertex="1">
                    <mxGeometry x="50" y="120" width="350" height="270" as="geometry"/>
                </mxCell>
                <mxCell id="QpuBEoRMAiUXIP9vKoB7-4" value="" style="shape=image;verticalLabelPosition=bottom;labelBackgroundColor=default;verticalAlign=top;aspect=fixed;imageAspect=0;image=data:image/png,iVBORw0KGgoAAAANSUhEUgAAAPEAAADRCAMAAAAquaQNAAAAV1BMVEX///9h2vtW2PtT2Pv7/v9j2/vv+//3/f9v3fvq+v513vuv6/1p3Pvj+P647f3I8f2M4/zT9P7Y9f7A7/2c5/yi6Pzl+P6S5Px/4PzN8v6q6v3d9v6N4/zAixclAAAP4klEQVR4nOVd6aKqOAyWsskiKIji0fd/zlH00DRNIS3LuQ7fn5l7xNrQNFuTdLebjHtxzL0P2qY+TB8R4FA3bfgZPD8W91kHd0LS5EJ4EkKI/FHGs4wdl9fn4OroeZPMMrYroqsPJ9RPzLueJo99unrk2P41mmHmjihIej9EF1MWOi5C3zi0X8xGgeWsWiO9b5ob18WIGnJ55dDtPNvGEkk4NKluYqJxmVnciEF6O/wBZ1/GZ/WiOQtsB84Y9D5HnlclMBAxZtXNLC+txi1zDr1PhGuv8p5Jsef5LX9uUWuUVxr2C1JH4KyuhPBFmOeeTzOknzFHzUh6hfC9PA8FUgzivCiFCCdlaqItDnEQBHF0ylpKyor0whj0klJf9drsFHWjHwpVOfjTdT4fOZxTqwiR+EZZJWJchRbEt/zHTZH2B4Xr85mpYk5O1NrHQZFq7ClGdnOkK3c/rXVBX8OfXs8SgZRU5BMVYZ0MMeFJX9+WHvkEB56BFhbAEguj7qm0dfZ/jCP+aM+mNL1PlODXdf5aBlIziWbgsdserbPJONTMVbG/DYzbyKdX0lB3uSD5sEWFhZEIKUvpEOLHhvdnIOWmv46/LN/xKFclR8SuQl+8G6LXP455wFJ6DfLYfAAexPjDpYfowdaIZnUwrFL5cOhEgSXu8g1zbKnoiEylq/LxFX165JikmZzCGg6F3JyCF4Ap1FUULfgMySymr5/IKayhko/9/FLmNy6q0Bb7X5Ed4w+4K5b23zk6UGALOUGug6Dxbv5mjiRX/or4fQiSrVcwQqKeRw3mFgnE2d7Ls7iof7KJXlU9xf7ybrK08oRNeOOOyLtDtd7BRrUGchLLO1BScHG38RsRssAKlaP3dmvVb+QVRJeMBfC3XYdAVVPqP46W4bBr/83lbZBeVAuzY2DAWfenPkNZhzN++qGWF9aSn+wdl4wm2ULo/6J23FsOCHrHyUVmlFQgy7eLdnaQ8nNx9ynurWrh4rec9FV2krbS1B1x36YjlkvDidZpqDDJNlpd4iKZZekDmWiq7j+ohzekx8yYhrSDljZBAMVuLzdWTcvcbZQvojjGhxl7t2G+h2ItCi+c1Mv3UEwEdRV/mYu/odjhp0iry+UAacV9DLSTfQoKfZLGP4mTSNbTTpJi+xBTbToqtbe6Dj2zhEtTLIPF1jbXHbK0UBjceqxqPZsLeBKW1qGSVeAXKCxiuRtv63kSu7an2NJ3goq48zR/4CpbOgTSd3KR9HaQ/rGdvHnAY9C3dIaMLez83GxF/7ifpp1SgWK618BQO9u9QMdZOMHt7d7gppUcDDndHzpPxHDlNBeULjIjgVsW5CVF0JFiHnF0kPLTIZxgCeDTs/VCoKwl1ER3t7yOQL6m5aO30trhm5lQaiFrA7K7eHAHlEamg+VnDfszCSVRBkdAoY5iB5/BmYTFzF0hQ3tMhQw5l1BCMIzNPfOX6niNvAgpJnmKIYbSiZqgEiPgWcnnFdUxZEOesIZrSIrjxN4QkaLa+pjAAVI9hRxhDTexQeUq0ouzlQMZQl5eOUFHjaNAD5Aak7WQWW5lmdu9SlYE8JDHX3AAI5dmjj2CpxjuH0hiW6V8QArr8U0EkwPC6l5Vp1tZ18Uv6rq8narn3wHFjFSBZlVRDQXlsOgKokhNYRNmKI8VUTS8zlJwrZNjXY+o/yCqyuzcprnHqnjQ8fxanrbnrK4MlEsjaJ3ETCmMsJRJqro57oUvHEnFhD9H2h+bokISUpo0bmdf1gDHi70qiarinGr8OQu6UffX4tSb8YWdfpwBfeDHe5n+0S075ovQignP25/bi2wp2ZcP+bwh1WdeXHNDOchCZPvhI5Ph1OXDAW+AM+D1iAVky/9zOnt2Ab8oaVms4So+EZXX8bmshGu9eMreJUvtt+1LrPm+8MJ8n6Zt2x6feDwer/88/5Wm+zz0Xg84SD8h0mxBDeVE7hN1ebonURTHJl0SxHEUJfdTWTuMvhjRUZGa66uVCTxXK4V/sHHoSvgTabfwnN/002Jm9g7KdvynX6ojffyU90ipD7KLUoD4wdO+ie5ldk1DBt1CtOV85kjS4GoV7eeE97SKbsnHd4vg43YvH57H/R6Gx9GpuO69sW0uwpm6KpyOw9z8ZKlzcVf8VODuWh8Nw7Q+hT3ie30e2VjCbyeHr4N6rAI6rzRmupkmzQJ8XVqUKKhyfQoK0TlR7GiBYrziW8/DUOIe9gIF8rUeD4nGJ5S7p1wXJiMS7ig9FAeq7HwX/xUkT+jZ01Ammva18NxoLg3iSvj78wmUeWH/5QC+5ubbtODHcOROfhbuqmZv2NfCs3/VFVXw/XqvedZNApTyIcYF83U8FAKJPPidgUqnbvkP2Z5eaWEubiURXSlnQfgfcnfQf0JsDWStc/gcnEUhWQ/Ky34pumQ5udJW3XBq6r2J8AyCPDJIrsb3wN8nBBqB7FPDHNKYgxWLd9JgEOwoWIQLSj3KpJERTeVUFYotd914Mggvye8oihncKKNwrJT/A1wd29HbaLZ6JX8cRCLAGZJFiZoO4JDCkw8ZffG1bXqhmuNwjPqz3vQgJ9swSc4D3AvMBzGpdxNtxMhjSCqfICDMB38soq33Y3oaMfSjkn9lELcC3DgtBgWOouRyyrCtqcxJNxFFOvjmL7gfkwiNbHEn9hTwEoeSOoJLVdZldRmyB4Hw6kXjmXjJGLoZEQ54z7hsQ4RDxguY02fqNUdsHbK2P3xJf4xng1B4fbhM5rsMvs9C60tgVM0awedBoxxUepd4RkYPolTDKE/Hy8RE8LzxPQ8ZLhjeMkHDJBkVi4p2JJYC5HKLXoHJ2qpww4zX7+zp+SSaTJDW3NjJ9QHXrpObAJUDMw7r5Qw6AmOgmWjBQlpyL+uIfBqsVGfJglcwbq8X6DeI1VMSVJ4SjmESAy572ZMwsZSSj7geF/waWYsbgwdesvEH76JBJKpjQCSet/DzUS3WAUqSQDE+KP4Y7MsXUi8YeoaJYr+ynH7VstDYQikb5RqkDXzrQNJQBvVYmzpqlUHe0xFyFLPmuFZoQsLuoHzIdbRAWksLl5hK6RlrU0e9pRtcZCA1uOkuivJBrjYMMHv8/BlABvhfKlniatrD/YQo8QWmNTI+jQP8BeVrMDAuLAL8NUUHxSKn8cM5ymbRKlm78S3iG7DHpSLvwAu0St8N9PnQxsdIBLIDZUcdqQdtgpXwnYGNA8Ktlr0XsHXj0bkZJC9gUGt3IVx1u14JQOCDYDAwZtgpzm8kum9J7Uded01KeOn73ybV/oUHNg13SgzY2qnV2I6yL3GzEwMoW1B/pbYx/wiZbi+ADl/WTi0WSeQSE7xPgeRXvMj2sSTg8fzuGxBisY9bIJlEloqmHg+U2kkQxfZNMoG1+rscofYXC6hCiUwb5HYFpg0vtYLXJUtPrujv65LBDJuSow8CxVwmq0UO3EwZ0piKlG+75KxJ0+2TKgPi/C4H7UppB+mBlLxtbPKJlGI/l6A/qBJ/i9WJtbzwtI/WHCxt3H2dZFmlqsBlTUBa5ZuJpvZPecgJ0Z460cPXQDFt/gBH1qkQRKuZ3t4ab28fb09Wb1Afb8/mmmRX42D4V9jVlHfBxXf6Tt/lH9sml5DmwlZiIGBDuMa5Ym0+3j8W54JyBvKQEsu0KH7852OZMA6v2jdKQjS/yc7fxKv5OURKt111Wts7k9jeuRPqB/f/O1skettt7/x4l6BZjBuc1jkCeq7Y+9s0R03LEUBvlzxMw3kg6YiAcMoDISyKJfJAUOawSf3ouT6DrtQsuT5igVyfGLdsNCufO35y8Xyu7G/zudbM2bvVt9Vy9ga3wObyMncz5t469j5+Y73c2x2dX+075Fe7BM16AKd2Wn41K1ZJ59Cn/0IOfUTIjg7BjSqb5d0k9MJMdRLutwPa1kmcp9VJ7DZYC/PE3Vjv9E6Jlky9ar2TDNPNXO/0wnBNm3FOK9a0nc706j6/xrn7jIBmvPQDLlq3WBjE1vtDQc4C0TuhVnNjtam7DdYfv/BVNebHeVqkJj+sPgKZ7CMAP5ypj0C+Xh+BF+iyQI3uvlcEcBsn9Iqo/6xXRAd+PxCB+oHYyGsl/Jhye5st0A/kjY31fJlA9Pf29XljY72b3thYf64t9mD72z571z/os/dnvRSP2d/0UvyTfpnnv+yXub2eqNvre7u93sau/au9gf7VIALK6CMiI3+r9K9271Fulqyw+Pnf61G+dB96RloLyAhfow/99u4a2N59EoveGcKs1Fj3zpDt3Quzubt/Zr7fCQZr/9H7nVzu8Nrx7vDic+iqd3g53RL/1fe0be8uvnP/W/Pet2h3Qe6a9y3Ocqfm21mAboZlScqad2pu795U97txoZTCd+OGlnHnFe/GnXD/sVqZ8DX3H0+547o0Rfb/6Tuut3eP+bS76smSzX/8rnpAscvL1VJ7yZqNccRfQ/FOS4wTTsL2iyiOcaXX3m2Y76F4F6vpSbnbKH+zj91+Sml991QubsHIFSkG2snpzEerNnU7Awb98xbXx+421wu47YDn6NNP7VNjg/2UmdaUCeKSrirf3PKhPelJ2E80owwQJ6/eKRLjCOkfWwfHcamZJNna6vpZ0T+W07asdQmOCsHqP1rL3dgnWFn2UXBB4chPuBZXbTBN1+OaIffWpGRqFqTMEDbrolT0d4Iet0WxEf2y8HeF6G1kfyax26kBD+9dDoyaovsWq1VNtYOsINeJLWID1Ckif7vWiWpwiiubaYDQd6DAFjKbiruRL+oWFr3zEOMPuCanzGZe42wRFFnxoiCIoxV/GN8JwONskCOwvOBSsiI4bB2pSgnrXsTvvEpDUN2+RlYEaNnG2ESlp0KLaWmxL0aUTz4cjj88A0DfkzFDM2lxI2D9cAlX//rt2GYBHdSWtz9eAIp0xHHBdrQgveEDLqka2S0gY4qbUzAVMnAz+I5vuOOJaGlfVivlF/kQa4OA6CoJbDulYMV8fFuleIP6ZtfjR3s2NdpSIH1tpbTMHZQcJivvRIRph+zBk9b0x1ROq8QUZqCFByWVRX/PQaG3djFx9C/0JhXPdS50MQELolZRxh/kCi2KOIpvV6ISjDE5oh+w8I835UWptxi5V+3bQ20iJ9riEAdBEEe3rKWKRVidoHC3pc9XvTa7Rd3oh0LlgwmdGRyAwhnCF2GeC0ORCPskjT6JE93oofAHjbfFweuA2dHLu+axQ4QtlgGspZn6uQ11VIMrMahadZTjVe1v2GYVTMeFMzMhMutwcsYrR12nJkTB+CoL0bgcGMRUuxo08vor3M2MsDLgrLzGdVpRM1weOKbcl0NhrsH2PbLhExdxERplmLCJiM2NiLI2Xst7na4rT1dyoYWw7F4zN5ImR43zRP4o52G6uLzmAo2ez9gdwRn34vFrdYZtU88rRC910/6KyPxRzOAP/wc+TccQVMh1tAAAAABJRU5ErkJggg==;" parent="1" vertex="1">
                    <mxGeometry x="110" y="158" width="102.63" height="89" as="geometry"/>
                </mxCell>
                <mxCell id="QpuBEoRMAiUXIP9vKoB7-5" value="" style="shape=image;verticalLabelPosition=bottom;labelBackgroundColor=default;verticalAlign=top;aspect=fixed;imageAspect=0;image=data:image/png,iVBORw0KGgoAAAANSUhEUgAAARwAAACxCAMAAAAh3/JWAAAAnFBMVEX///8Ae9AAe80Af84Ags8Adc4Ad8/H4PRjqOGIvOcAfc0AgM4AeswAcM0Absy12/LM6ffd7vjw+PybyOkSi9PJ4fMAhtHt+f08mthHntkoktX3/P7k8vqx1u90s+HU6/hprd+o0OyQwudqr+Chy+oAacvj9/zs9ft7t+JVpNuUxei11O4jjtNEnNib0O+x2/LA5faZwOh8wumIxurhVC71AAAIS0lEQVR4nO2cDXuiuBaAIQRck1BFECnf2u4IU93bnf3//21PEr60Fa3VvbvteZ+ZpwqBwsvJyUl0xjAQBEEQBEEQBEEQBEEQBEEQBEEQBEEQBEEQBEEQBEEQBEEQBEEQBEEQBEEQBEGQb8bEdT6PPf1/38Z9mNjm50E5KAflDEE5I6CcEVDOCChnBJQzAsoZAeWMgHJGQDkjoJwRUM4IKGcElDMCyhkB5YyAckZAOSP8m+UsZv7Gz9K7nPsibiunCoNDwqerr6yoGWEM/kbrS1oH4ezqX3WK28qJmCXhlFKuXrHw2gvLBeOghjDORbw92/ynYNXJfeWV3m4rZxrGEgp2LPXq6sipBWVhlU1mOeOU7c6294XIT+wqHBJddxF3yTkeo+SSvnCapUlZmeiTBZwK/9wB3n5fnNhVEOvxuqu4i5wFoezUpV4GxEvcvk6hZ8Vjjc/wX5STJCNb9hb72b3xCbe2g1ZvDxw9eUqudXt3OZuyv8tFXk+MpMozY1tBYorzgUEvjzmNc0+/izgb9KRAhE3LdBOFlEYb7WpR5Vsj8SOrMrb+WjbZVvnEKHLoiXGlT+VXe06tqNz8i+SIZfM6Zma3NxJOBumERGsYo2FgY6Jun3BO9BaiVT5afJCEk7Rp5qs28o9Kab7pvHghxFVt+I4jE/KLQx4r0ZxcDl+Jwyw5djLrinrp7nLWggfNrXmMh4nhwUjPLBbX+5BR1gR8TTjZ1Y+UcVM94g3EXrw87i4bE24yeoq4xc1Mu6oo58yp5UspZ0IoBTNRHVmMihK27CjI4cQKzpcDZ+W47sO7uJ0I12WUQjvnMjkLytvXGyZrEQ8u1grmcldFKFHVyUZw+iK35IIL2T0WII6LoFwPU9cShvdaBkAageBEyoE7F/ufYDEjvZy97FBpDXYgvpLFDJ7JMl183M2xHPuPeU+hUa//0O0c97f/rVbJarWdlbZziRzjiVlNBRJz4ik5PGweY8VUqt1avM1RFTx2+TONhQUxQVhYr9sO8WhZ+9Y4Fc9KDme6wOvlWFHXXHfNlLSHfVbO/ES7uQodOxzsL3b2JXIKwnWZ7Al13SCHPTf7koAL6B/P+s4UgQ4duN29BUWyFERqlVtTS8lVrFVBDHJIc6peDmmDDaotdaqbDeUn5bxKOU68Gm5L9vYFcmTATOTPKVOVIeQcq4vxijGooWurb56zbpzazipIHdCJ9YEzwftKN5Wx56skpgA5MpVPyCCRP1rqVLeTc6o8UXLo6nDjKnAukANxUcqfO27JOwE5fdmRqQuPOQ/iBlAxnHIkxSYglJug9yc7nj75rOswvnY6GcQgPA315v5yZLdy30wJPPsCOQvInhAqhb5UkMPqbl8hwBR0LsgdDZB+6sOzQbpWiQRi6uj3+KwT2cvp20DBUBo37VarhmZ/+/bVNh3abJv7/qveWV4SOUbJ5LBRMVP1Wc8aXCvI2SUgh++ingyGmqfhU6pgzN9CZn9HTtW/fCPH13K2N5s+2A2/6+Qz+73dABmn1If8erDtB/l0Z+ZFOQeGYHl1gaV7E3SroNuVEZlHYi68gxM8m2IYPh6cL5X5qew2bRf67tvye93J6dtU2t3t5LS4jRx34O1PtemHihb3Kakfuj3jcmRK3haC6EQLclinIlc3XDKSdcdmEDMv7QinSZmU8yJ6qxNH9tGBHEjIWg6n3WHwa/1/WE6hNzmkP/KcHEjJz1DAbBs5tEuaskKEHvcyGIci055BaUKHcyuIr3AhZ+ekXbUqGdscy6kMPZS3mbEQVAXkPyknCZ3jxufkJJBTAqvpKLJCbio3o2byruGUlDQTQ5iBB+rmOeuCaR5y1Vn20CG14CV4So/lNHUOpzouk5jrsWxL+I0Xu96T0zzvV3Z8zDk5shLmYtLJgcpuCve2jHSFDxnDpKKGSUA6Jar0lSHFxT6Tt1nIg9W0EbK3Fcyg1bOlbb0vh3M/NZLJjjU14xZmHZvJwfXcXo7Z9vhVbroHjc/KgYza5QuQswtgyA5DGLbbtc3KpDBTDC3Gm0zshTCzgMkDtIIgsvTY9WxyTlQrtksO5XQTTx5ymLRDKHJVfBsyLmGmK9gNZ+XvyXG7derVX3S4440cIY4KppizdkEFhvIoyS25riDCdh5hrEO5gfUj8eIJ3MiVB9hWtjPqSWzqVk+qMPYdp5PjODrnsNyL4VQWE3H7fGbUFELcWY7TD8FGkoX9rjefWxXroyje8e7JSTkQ6+vpdJoN1iSS2TTPp9lgYWG7ruooqqv1cLFhuamm025L1p0hydZycNdD+XJaltPBFSTecnbvbmXa5fDQjJyaeL4hZX3Zq+XciYM65/Nn+4gc0z2o7Fele6GcnImuS35ZOaYdvA6P/uVeJKdgg6L468oxHbcermqU9lk5z8EjjEF9SfeF5ch10qj/dDU5HzkbAW4GOjxBPvMp1DgTRy0c3+psH5Yjo4d3ixdP9jk5RRAGm+FS+TR/ud31H5FM82uGpRNcI0fubtdL1Uzru30/51RC7qLnQc9gfpztVv9hPlbn2FX/iYNOsQlDOSpY3Noz/HZDO0cnKMfsSpxfD47uVnrypJa+vr0cpy2Os8B13Yf2S2ZzTMjKTjfPns9mXSFYYuQoOfHbr8E0C8oox7SPP08CYpTT2ol/HB6cRO9/qPdVOClHZ5jDOsexq+EHwt2CzneTY/+VSarjz/ycx+f5KjGSH7O8Xwr8bnLkl5SAt3sdV30vxxnu+nZyPgLKQTkoZ8hN/s8u94vKKX67BZ/7hw4IgiAIgiAIgiAIgiAIgiAIgiAIgiAIgiAIgiAIgiAIgiAIgiAIgiAIgiBfmr8Bm56qW9MrWfkAAAAASUVORK5CYII=;" parent="1" vertex="1">
                    <mxGeometry x="230" y="160" width="139.59" height="87" as="geometry"/>
                </mxCell>
                <mxCell id="QpuBEoRMAiUXIP9vKoB7-6" value="" style="shape=image;verticalLabelPosition=bottom;labelBackgroundColor=default;verticalAlign=top;aspect=fixed;imageAspect=0;image=data:image/png,iVBORw0KGgoAAAANSUhEUgAAATYAAACjCAMAAAA3vsLfAAAAeFBMVEX///8AAACampr7+/vJycllZWWwsLDU1NR4eHiJiYnFxcXY2Nj8/Pzu7u7p6enBwcGlpaVycnKVlZXj4+OPj4/s7Ow7Ozvf39+2trZ/f39dXV0WFhbPz8+enp4xMTFRUVEmJiZFRUVra2sfHx9BQUE0NDQcHBxYWFjCGEOyAAAEaElEQVR4nO3c6XaqMBQF4BwRR1BxqKDUqdP7v+E9aK0CJ8BlrTYm7u+XFtS4SyATKgUAAAAAAAAAAAAAAAAAAAAAAAAAAAAAAAAAAC4IPdMlsFG4MF0CK01NF8BKs8B0CWwUj02XwEbjmekS2Mg7mS6BlfyJ6RLYaNgzXQIbTTemS2CjCaF78P+CQ9d0EWzkJ6ZLYKPO1nQJbJTS2nQRLBRSx3QRbPTxbroENopoZboIFppRbLoIvy+YdyrGKRbzjmSeqslyLg/c9slXnvyys1/6Hn/MI6o4OkYkmyu1oQ/x/bbcPVhpXpZxY+Ayi41C3dYuZ9oTjM/5SE3aDXH3wJvddo2PdLp/j1/8Ln+IY9vTl24rx6Z9ZZ9oVPrjrJylT69tC/e4OLbxkXTHQFVsal4+TMe0K+3mu9iKy2JbaKtpZWxqT/vCmx2oPHvgbGxctTTVtDq2CRUSOUkJuRsbHzdyNa2OTU0pd3T16Cjs5HBs3GIQW2E1samEPm+jkWsiafbA4dhUXDxNXdTFpnYUXR8GO/mQdTk2Pi1JnYXa2Ba3xvKA5NkDp2MLSeqA18bGV5PvmhnrLsdOx8YJvZS31sfG3YLz6/iqqlkm43ZsXMnKrfkGsXEna6iyk9xAs4Pjsam38lB2g9hUStwNTUg7e+B6bP1yNW0Sm1rSJ5/h+rrNrsfG339e2MqxLYclSaF5diTeTfsJzsemXorVtCuPmRWOLG7nVkzwuR/bolhNObZ0VDItrFPwOUn9ELH7sXErLF/ZGp3bekQJ6WdGnyA27tPnRn6axLbOOgpf9Kbb/gyxhbS7H+xvEFtwoNP5bSLNDs8QG/eRhnfPGsQW0SG47KmZyXmK2LhPf3edrI8tvr5+KA8buRtb/mQe0uftSW1sK/rpkr1LnVr1LLFxVMnd49rxtp/RIk5QXNQmxTblbv8o8u2d/SvHxv3L9PqwfnT3bq3pNOuclkmxDQZcuzs9OWcbCLGpw/aaRf1cQnr3dCAOuYmxJcofcNvF2uorxdb/OQpqZ67yreOdNAOmiW1Gw669Cxuk2LhP/z3fXjdPWpipWpMwZqeJTfX2pJ3WfnhibNynv1TTytiW5XF0aQBJii1JVPYBrw26bo/JE6f6JnS5X6oqtlQaBvfprXg/Qj62URhyQ2+/VMdh1uhrUeKHIMfGh825mlbEFoorjvivxRvUcrF5NM+uHPyZKW0P9i4g1MSmjudqyrGt+4J1NvVSXiWjzsdg4YSVP9omfBkYd7P39tKudoHYw9PFFp6PGs0wJV8KOprXZeuQ8ifLjYu9hCCK5P95nNWgcTQQdbxTpLsNfhjlWyWvp6e6YX6gX2QJesEOtza2MbH3QmdUjGraSiKu3oI6O2s7jUZNcPtUKyOxKwB1EgfvxfgLO/wIShsh7qltZVRcvQWNLPFzYq1YOy1n1gpX01a6qKatxPidpzYC/NBTKyEava1g5A0AAAAAAAAAAAAAAAAAAAAAAAAAAAAAAAAAwGr/AP+wJaSzezVyAAAAAElFTkSuQmCC;" parent="1" vertex="1">
                    <mxGeometry x="90" y="270" width="176.87" height="93" as="geometry"/>
                </mxCell>
                <mxCell id="QpuBEoRMAiUXIP9vKoB7-9" value="&lt;b&gt;&lt;font style=&quot;font-size: 15px;&quot;&gt;FRONT&amp;nbsp; END&lt;/font&gt;&lt;/b&gt;" style="text;html=1;align=center;verticalAlign=middle;resizable=0;points=[];autosize=1;strokeColor=none;fillColor=none;" parent="1" vertex="1">
                    <mxGeometry x="50" y="100" width="110" height="20" as="geometry"/>
                </mxCell>
                <mxCell id="QpuBEoRMAiUXIP9vKoB7-10" value="" style="endArrow=classic;html=1;rounded=0;fontSize=15;" parent="1" edge="1">
                    <mxGeometry width="50" height="50" relative="1" as="geometry">
                        <mxPoint x="440" y="200" as="sourcePoint"/>
                        <mxPoint x="720" y="200" as="targetPoint"/>
                    </mxGeometry>
                </mxCell>
                <mxCell id="QpuBEoRMAiUXIP9vKoB7-11" value="" style="endArrow=classic;html=1;rounded=0;fontSize=15;" parent="1" edge="1">
                    <mxGeometry width="50" height="50" relative="1" as="geometry">
                        <mxPoint x="720" y="280" as="sourcePoint"/>
                        <mxPoint x="440" y="280" as="targetPoint"/>
                    </mxGeometry>
                </mxCell>
                <mxCell id="QpuBEoRMAiUXIP9vKoB7-12" value="" style="rounded=1;whiteSpace=wrap;html=1;fontSize=15;" parent="1" vertex="1">
                    <mxGeometry x="780" y="120" width="400" height="273" as="geometry"/>
                </mxCell>
                <mxCell id="QpuBEoRMAiUXIP9vKoB7-13" value="" style="shape=image;verticalLabelPosition=bottom;labelBackgroundColor=default;verticalAlign=top;aspect=fixed;imageAspect=0;image=data:image/png,iVBORw0KGgoAAAANSUhEUgAAATYAAACjCAMAAAA3vsLfAAAAwFBMVEX///9Lrd1MrtxJr9z//v////1NrN1Mrdz9//9LrtptuNl1vd9Dq9uYyuM9q9r///zz/f+/5PRTs9yFvtyVz+pBq9fj+PxPq9VBqtzg8/rz//9Kr9nr+fvy+vyT0ObF6vVht9223uyi2fDW6/Rir9S75fSq3O6f2emAyeSx3e5mvd5fvODY9fp5wuWazuVWtNXD7fjC3urh7/Sx1Oemz911tdTF4+uLxt3t9v3D4/Wy4/N3xOKH0OZnv+PS5e661+U9DKB+AAASaUlEQVR4nO1dC1/iOLRvk+ZRiCmC4dUiKOii6zDX1zi73t35/t/qnpOCCjTQgi7M/eU/s+q45dCcnndODkHg4eHh4eHh4eHh4eHh4eHh4eHh4eHh4eHh4eHh4eHh4eHh4eHh4eHh8XmQMmBSMsaC6OOv4d+MSfiDV8jdSAPdAKizOXGW/y6IJIsitv+dHxSMRQFwDX5qZHfDq+vLc8T16fguQ27B0qNoR77BKy3fl97Oci5JouKX/DZAcQhkNvxjOhJdpboW+E2R0fTmroGM3VE0LLtlv907vbg+P5tOp2dn1zenvQxZ+btLWxD0h7PbVHe7NI1DIgQBxCTkIaGpikezO5DFHaWt0bs6fx3FSgN1BdDwkzLN27Or9o56f3Aw1EwWNIazkdKUUPhLCA/DkOcI7a8oMenrVQOFMgJ13r5YkCQwaAkQ7t1M/0yBS0iFxnSBGN5G6fj2uoeGD6wqmL3fSPSsPWtf/wnPPyYWIhTkA/J/wpeuGd000DGATdpGFY0/0O2PL+FhAK/gOSwRnQOeiTb1q4a0r/idABy4O4sViWNg0CYISkIzupAsCVbt+zqs521fjrRCblErvkUAzlHabV5nu1vOA+FuSrQiqI7AFxfLALh0HppXsHFlDFIynKZKcXihfXkxWfgv5oJQ07zpy9/BqS68WHYOkgZOoBxSGsfmss8goAgKeRfltjKQw1cDgoZ06SaCVhThGqpq48De0bH7CAjEAnnVBFNdDbGpt21w7CCK4d/dN9PtpJXIajXrsyA5ek2VSdD+1rWOc6NNW0NsOuMgcXlTMH2Nc2PAlXSrUU117Q50+9hVlcm/U51rSTVwsEWnQbEpwjxs+N2AvUppket0g4Y0NhfBrgncfwDMERnrnxlOILCtCnAcMVE3NsBYWSPmtP1zYBrEZSKs9jjgakr1Oaa/R+ocYHURKKiJqynnR5DORRCsBCISH8fdP3uQ5cJMBzI6UrZh0j5udiuatCWuESVOg2SZbVZBO2qPhwEwr40yScghICM2hLAj3BzebuEbFWO2bIhATC4gZdqHrKBh97Z/jEkWmg52laaYple2a2/gEI6Nsg/rszbpEpJayDV2phoKDsnva9+W5w7Io3XYqtqV2Z1hOTAvVy/v0iax6ni5N1nLO32Cdabjsm8MAqP/ISnfQ5OsNgGoungTCSwqXepwHwVdUOZEXwTsyAIRdHaUh8SZXJcF0Ig72YIs5AbXugNr3pttHMIXMJsHVFK5Wv23/2o3gWe0zPocCfg749JWMK92s+BUYVJehjFbyIK4iVr/cMIWLdjG5gYWHLtk2e02lmGFDe+eb7uOxHrMbD2EsSFkBdv4BQS3Es2hZ1+V0pcrT+Vsm1uKBOVvqt31Ibs2rIEhB9Dqb1mdUHWZb2u1wbNuZRu4blt920YWrtS9r+FamaeBnMVdNhlF1i/JKJHXhm574BTLEWp7jo81ODMGQZZJv67TrbwIIdYjitJ4qyoLYV6/QtqAH41BowwyxGCx95kMDWaUTmCJV+l4Uqu36vVR3FViw8UUQj9ax0xNnhuQtg1BBdBVSpnOqAZows9bghDg2/iTWQYpG+jFdbMUYipSak7m2SPLRko4Sq1ccJHG1Exe7h8G9o3kw/3J91QV+lwkwUEaUzUGvg2Ni2po93BSqs3oBOhaERpkP2YjA2IHTjMslnyQyldZovZeAbbwcGVKpJQ2eARlm/TYnOFn2n0x5JJUPd8P3gJ01O/BX3UT83VraFfcDUk3HaNvdlsrEByu1GQ2btjgjoG9AM/EGuMX8LwuK8cJPL/e2pb0XpBBwu5SmtqQcytIGqrHYF7GQhV1AR67mdxjRSk3hCzB0hDI9f2tWb8aS0PGTOpPYzCgU/fDwO1CA88C6eH2tXXu1kXJcR23tBw3A+I2+9wCOTyy7LvWxG7UloCuoVbjK/sjfPgFsOvjnSdUTinn2wQYVyATmfzD4Gbzkh52ded5Nh7gFcHQ/QTBc6rJ/cB2kVgpZoslgGrLGwNsK3wZ5UJ0Gp+6lwW30Dspj9mTDeWxGnNp6LoFspoMGqqfH4rfD9g3TOMwDkUsUMio0p3a7N/cTsED6Y9cIozXq5PcUBZyYDxRtp6wLqOA7o9PlbZEVtT5XHYYa6e4u16INDQnDYcJjmQSnBoCsbtIU66sz7CKNqd9bUS4VvSwT4eDWf0RbNoe7DXdJWD1UmmV27lQJc+NZL4ZBHbq3OS+fV1Bwf48AtHivXar4jcmJVqrTutxjMqbJDJvsUqCrIkpxQpZMic7edjoDqNgjAHw6svtqwVtfmrohlaVlYbMDTwoSZsSh7sPSedX4GyMwbiMBZedTv0RjRnLO92ihQZdKiRQSJZOBra9w72UCGIXVzMANQ6rUZJNka2RvfEq3+mw7Xrs7XvwkVW5q8q5JudmRQbnxf5O4A7er7zVxXED9uvPxoKL8xQ3/3WWFrMMzDqZ/MQnsUFm0Nycd2nh0xShvtiHbZb6xodWAGzyi9hHAcqaxbk2F7F+cuyxl3ifa1MswZykaa/MrkA2IoWRMoR7s93uaX5nEjsEqpbtpGw0+v3+u7m61mkh2wTRLblzVbDfpMUFFULVfbnS9o12qKmq73ZPOWBF/ct6dUD2Nxq9yXn/z7h4HzkOJxih7BgiXRlH1pqal3JUZWPk8qWTfXwCvPYPQxWFyFV8DGMF/n3/svy/wT8pUBNzbymArg7Ve0feMrr3K+8HqiVZUuaWZXAbYx5QgLCTufpElgHexhSTiDuDHdj1voyh2W0ziIffBzkFcAhpTFbDBOvrUUWXlsFk3h6+fcEsyCDOL0o8CEQ0QclNFNYrzDKIgLR0B3a9kYUwtVo7RQ64d9XKKUQQylNRUMrARHS87G1sC/fdaQn8dfXXmaYOw/R9UNLLyETeOpzKXsUj+VTbFc+L92VDTnhaZLu7z8GKu5NJ/9zoMkixsahwyaF6Kp2IgyYU9iaBtN1vf7UT+5x4yNueQOsudczpmiKAudP3K14UwpYr2568VZwpbgavpx2oGWnnoXRTqQyuugVUgMxebNsfYNu+Qc681nQMbCNmsHZIo4+1zDJWYMGkNcRoHUpyDbg7VKtt1jl5tWe8uydYnjgWmI9QvAYr1cAEIrz9Nom5IOCdy+6qw5vfqeKbU7++gBnlwYI77bBB5gL4tNxu1W/G+20Sc8hxM9e9rN+cDNqOZ/qF0ibnjzVaRn5Dc0GSwalLgNJxsJQBwY9/q3J7mRv4plr2mFapBcA9th1p7ReybWOElcy3l9mlsgUavgwsfSxFlNiM1B/FnPB9QHj3qcIKJOtZz7J6cxCw/9iNJ2XeU/bPXLieiyILzpQjRaitdjuwU+24tAJMlfWCCTGFVIj+Mk8K0cMZnvtS8+N4+EXhH0SnMa+AgCO197GuBq1lcols3Hardo6vglAIPyosAT0pWY+aSWj+/UROLb2lTO7Uh3Nl7yKOddvaokYJOYLDCK0UnpNgqElROlEFXHR+ll8CltWLW/H5fnXKTe8p5WvxDjewTdUWuw79piNg1cslLQjhpt0SEdtmCLCYFZr6WDAtXsJ+qfwmyKTXceNpkWH0i8M2UNJltoGZielig2F3iErrZY1RWKCjoQj3Khxthhw0Bi5Alpy7hMzRDbRaQGXB+Z6N3vl6O4Pytg1MW8H2NaLb2v7qHSGTCDcM1mH3SqLcJUSZw8hzdbJMLYu3N1FtBxcPVeTkvLhXgOxXFP8ENBxKSsRy3ZldmuKYrRrb4ioBSOTanhYHzuTBejhcAqGjJbFAj7u3R8Be78cKN/e3cdQNVPkM7UvA5EgUB5QrBdSfrsJ5JaSpqWCV5D9xWkgmnmw9Wv61YPIfxzE+urwX2ah1DV2rRsJvVDUhpJPygjLsOo4CmpMDH+lg8luxpRdx+PqxSsl6s1Yx6qVay+cWk8dglsp0pzHbeFNg2rB/AHKEw55NYM4deULT7EPrh3XABS9HX1H+pIYIU/UsoxIHaiGjPnPskhLshDiwtAU3xWzDI8azj5vAi2DGtm68hTK4dxa7+kfWwUHe9LiMqETsShf3CoD5OAnKzTL4MmBEWbwjzwVpZh+eaYSzmti8HJV/D1iUYJdpldolp7xWasV3rm57MG0Pi7rXoSCDtjP2J+pFYsukTfrZaqcJjnSSSf+bpmS9gR5rYoUk4WKibhi2nboVFWt77e9dBwlO63vtPX0GJISUeDNFHksQdYrzFIofLE7RYvJ/DSnabMETBkW7MPmvOj072Md9UwFwTa17eBHmTuXLSpTlweRUOdiGZwZ6zGW+salQnuc7JGuv5o6oZt4K3GwDWae0Qe5311QEz2mtv5qHtHb4g5FgWW+c0yV4rEdtV8cRsK0/LT6ZYNvgmy6qYN66tfYmky7/ptR5Yg7blQ4OKZN2ymNeLBuU6lEvH2r1UaVYHni1X7VNJ1a2m+3aTOtSiYJGC/sCkioga48vrTnVSAbZFCdRUb6upByn9zwfwXlSbJKv67S4ud7uzpOhxCOhS2yLsLYybKrCVyDb0s64rR0t+xYqvbCtSyutOditiNNu6HqbgLC96CQ/ynVoMNuzLDacXCTmJVvqpI6w6TVoT9WG+ps5YcEodR/sA8Nlpj0bRrwbKtv1O/xHo7911E7taacjmK+FZbdswwEf9PdazHpLciHl3TTVm7YVMPG8MRsmMfBQ6Hg6XlY3ll3VtUI1L65HcU4hQdh1MOGnAuVoatbtyLupojE16etNr28lTspsOLuNdRpT18idELfjEpal3DldBgf2hFST21k+FdTOpzydNsFYpu4CVUhp5/4IVHSOOxNvMEN2CgXVujn6Np1Ov41i1bW7cEWwv6eqJXE7/9LOtXNQDu3FCsj+83p+eT59HcFbCDuA0AlC9KGruh/Aglc9V4JiWGVNY6KIIW/7ls5Kr6CTzDaj/0zz32wkG8cEK1DG4EhK97X5xbrWOBpZwwMnjp2OdwgIxeYH2rnYvKlAOz/srDYWXBe2Cy3TzRsV5qdbtl3deTim0XdJ8GLe0qEihbLWBtSH4gy/fIPaoUahPbYY5UkENnq7Vc5ezxcZRmijvNBNGoIPeB6HTkY/ABPnNN17+ocVnjjutuY718C4oU7LF5W2kabm14bzOP89pB3VQfadNoPgqXoeLNq7ZCJfNP2EaTMWRD0Fq1PNDwqGR+xbat+2GESM7mB+3hFj2Wyktg+zKAVhZp960Ht/JLhFDwu0wcJea8OGore2Ontqctyx0d1+ZO1hhhkO5IuOSEkR4E0720blbGFZCC62s3Zc4NRgtXFPAxeLzkx+7liBz0GEx5B5WFwJ2Qo8bYvetjNe6Z0Hibs2mKDtcugkJ41+PFSPWN07PrbhfspFyqvNw11aWxh3Jz10A0tkwfXNDE935pqFgpRqtXh1HLA90BfOkytbYLminzO2qkkMS+qzrcG0ky6mEURNxjjw/gi5ZiGD0xQTgOqs4yKl+mVQvDCJegpZRnXDyQUH36xb2ZE5gmVA3PAjVbvMpQxj3nkET1c8viEILuwBwspkaSyEEU+7nwT+T4Bhb6+mc/tWWiTs+rqoR46SDo51GE90alvlK5ElQpna+HPnGX0+8KNwWOPFdSpmA3AQSsQcrs7uBGetamPE53TTp8IeiqMD3OJ9U+OUa15G4vCTFKh63trtDg71AsgSbgdHbaVqux6oMi9f1Q/+6QA3//MlFZzPPzbDWfyyAPOjJr9KmB7whEAWSM53LTb3ZWJXUbfTQv08nhx0E/ADqyAlqhvcqXQt8H15Sk8eBzgRa8vqcFxJMie7oXQ5JytIajov44LBo8cKaT0fk/d107Wb4B9qY0LMmxGE3RzHj7ip/RoESZ65b7RAMv9sDvxgjq6dZ2cLcW8n9D/M5MIftJ48WfX8PUTNIv9Ms0COTzpGhRjI5ad0cXgrfse2LFhobMxk9oDjZsoNWZjPuJG92cRgt00+wIgTuwXNbVInODaYKjE5+Tcff/DFK/0C4DSbwUUr5l2FGT7ni3QcJUVxk9bma6tIFkK7wf1J06juu67aTR6wpqHSplOb/QABLjUz4xgR2VEd2Y/Zc9N0lSaxwnEj2hjTmdRndt7YDko0n1c7GD++jIRWOFUV5Avoa+BYs35y35NWMo88VNsEbELD74OH8f3jyVmr1Xp5mT3ejzMrZWv9buWA01fyEu0gG9/PTlo4AQfoXiDdfOyblMf/YTkbEbkjf7ZH7C7Zx0+XW+Y++3/xkYceHh4eHh4eHh4eHh4eHh4eHh4eHh4eHh4eHh4eHh4eHh4eHh4eHh4eB8b/ATmJSViiiz5jAAAAAElFTkSuQmCC;" parent="1" vertex="1">
                    <mxGeometry x="827" y="140" width="133.13" height="70" as="geometry"/>
                </mxCell>
                <mxCell id="QpuBEoRMAiUXIP9vKoB7-14" value="" style="shape=image;verticalLabelPosition=bottom;labelBackgroundColor=default;verticalAlign=top;aspect=fixed;imageAspect=0;image=data:image/jpeg,/9j/4AAQSkZJRgABAQAAAQABAAD/2wCEAAoHCBQUFBgTFRQYGRgaGBgYGhsbGRgbGx0bGxkaGhgYHBsbIS0kGx0qIRgYJTclKi4xNDQ0GyM6PzozPi0zNDEBCwsLEA8PGBESGTMqISM1Nj4xPD4xPzMzMz0zMT4zMTMzMTQzOTMxMzEzMzMxMTMxMTMzMzExMTExPjMxMT4zPv/AABEIAOAA4AMBIgACEQEDEQH/xAAcAAABBAMBAAAAAAAAAAAAAAAGAAQFBwIDCAH/xABHEAACAAQDBAcFBgMECQUAAAABAgADBBEFEiEGMUFRBxMiYXGBkTJSobHBI0JicoLRFJLhJKKywhUWNDVDU4PS8DNUY3OT/8QAGAEBAAMBAAAAAAAAAAAAAAAAAAEDBAL/xAAaEQEBAQEBAQEAAAAAAAAAAAAAAQIRAzEh/9oADAMBAAIRAxEAPwC5oUKFAKFChQChQoUAoUKFAKFEXjuOSKOUZs9wijdzY8lHExRG13SVV1zGVIzSZRNgqE53/Mw18hAW1tL0h0NFdWfrJg/4aWJB5MdyxWWM9MVZMuJCJJXgfbb1OgPlELguwsyZZ57ZF90asfE8INsOwGmkD7OUt/eIzN6mAr+ZiuL1mpm1LjuLKv8AdsI0HZSufVkJP4m1+MW2qE7hGXUtygKiGy9fL7SowPNXsfgYcSsdxek166pQfiLOv964i1TJblGDKeIgBXBumWql2FRKSaOLL2G/YxZ+ze3VFW2WXMCv7j2VvLn5QB4ls5TT/blqD7y9k/CAnGdiZsrtyWLqNbbnFvDfAdOQo592N6UqikIk1eadKGlyT1i+Z9rwOsXphWKSqmWs2S4dG3EfI8jAPoUKFAKFChQChQoUAoUKFAKFChQChQoUAoUKFAKB/a7aiTh8kzZpuxuEQGzO3Ich3w+x3F5VJIeommyoL95PBR3mObcTr6nGKwu2hOijUqi33f14wHmIV1ZjFVmc3PAbklqeA9PEweYBs7KpF7IzOfacjXwHIQ5wbCpdMglyx+ZuLHmYlkQAZmIHjoIDxJRMOElARFVO0tJLNmnoDyvf5Rpl7XUTGwnr53EBPR7eG1NVy5gvLdXH4SDG68BsvCjDNEbV4/SytJk5AeWYE/CAkHkg90N3lkRGJthRE269fO4iTpMRlTR9nMR/BgfhADe0Wy8qqBYWSZwcDf3MOMB2BY7V4PUmw0Ns6EnK45g8D3xa86VxHpEFj2Cy6tCjaMPYe2qn6jugLO2cx+TXSVnyWuDvU+0p4q3fExHL+zOPVGD1ZupK3CzEvoy81PPkY6Uw2vl1EpJ0pgyOAynuP1gHkKFCgFChQoBQoUKAUKFCgFChQoBQoUBHSntJ/BUTBTabOvLTmAR228h8xAVZ0qbVGuqhTySTKltlW253JsW79dBE5sxgi0soA2LtYue/3fAQKbAYRnc1DDRNE724nyia2v2iMgdVLP2jDePug7vMwDvH9rJdL2EAeb7t+yv5jz7ohafAsSxL7Sa/VyzuzXAt3IN48YdYTg0jDpQrK7tTW1lyzYkHfx3tzPCIatxyvxSb1UlWsd0qXe1vxHT1NhATg2QwuRpPrQzce0qj0Fz8Y3y9mMGm9mXU2bumD/MIww7oZrHXNNmypR93tMfhpGdf0L1iKWlz5Uw+7ZkJ9biAaV3R7U0/2tHPz21A9h/IgkN8IWE7dmXml1iMHQbwNSR91l4HviIw/G67C5vUzkcAe1KflzU6+o0g6n4RR4uiVCkqQRmK2zd6N+8AIpUYhirFZQ6uVex1IUeLWux8IlpPR3SSVzVdVrv3qg8rkkxltXtklIP4SjVQUGVmHsr+EDie+IHBNhcSxL7dgVVtRMmkjN3qN5HwgJl8CwM9kVIB59Z/SNE7o9Vu3RViuRqASL/zofmIkz0Iz7f7ZLvyyPb1v9IHMY2ExPDvtlUsq6mZKYm1veG+3lAOKbaWtoHEmslsy8Cd9uatubwg2pquXPQTZTBlPLh4jgYDcF2vl1a/wmIKpVtFmbrHv5HvhnVU87BqgMpLyH3cmXlyDAHzgJ7a/AhUy86D7RASv4hxWNXQ5tcaed/BTW+zmnsE/dmcvBvnBFIqEmIsyWbowuDFb7cYV1M4TkFlc300s41PhffAdQwoF+j/AGiFdRJNJ+0UZJn51G/zFj5wUQChQoUAoUKFAKI7FsYkUsvrJ81UXhmIBPcBxMM9rtopeH0zT31O5VvYs3ARzvMerxepaY73PEm+RFO5VHAd0BaeI9NFGjWlSZkwe9og9DrHmH9NFI7WmyZkse9ow9BrAxT7F0clM05i1t7M2VfSIuuwzCXuqTwjcCCSPQ6QF+4RjMirl9ZImq68cp1HcRvBjn/pSxg1uImXL1WWeqQDcWv2j5n5RDSZtVhk4TZM3eCFdDdHXiCPpG3Yml62qMxtcgLH8zaD5mAOpYSjpvwolz3m31MDmxFEJsybiVT7EslhfcW36dwFo3dIFWVkrLH3218F1jLaw/wmGU1IuhmDO/DgGPxMBCy5dRjVcFXTNuvqstBxP/mpjoXZnZuRQShKkqBuzNbtOeZMB/QrgIk0ZqWHbnm4PEItwoHcdT5xZcAo8j2McwgB/bDZeTiEhpcwAOASj21RuB8OYjnShxSpw6bPlDsvZpbjkwNgw8OEdWxzn000ay8SLL/xJaOfHUH5CAfdEOxqVbtVT1zSpbAKpGjvvueYGkX4BbQQLdGlIJeGUwAtmTOfFjcmCq8B7HhhAwoCnulXo/Qo1dSpZlu02Wo0YcXUDiOIga2Nrlrqd8NnnUJeUx1Itw8tI6DdQQQRcEWI7jwjmfaajOF4oerFlRxMQfgbevpcQD7YiraVNmUM3QgkqOTL7QHjvgkx7DxUSHl8bXXuYboH+kJBT1sirT74V9OOQi/qDaDGYRe43HUQAp0MY2aetanc2WcMtjpZ1vl056kRd+N4/TUaZ6iaqA7gT2j+Vd5jmraKW1LW9ZL7JzLNQ8je5+IPrHmSfiM56ifNAF+3Mc9kcQqjuHAQFrVvTTSq1pUiY494lV+B1jdhnTLRzDlmypkr8Wjj4awB0OG4SvZacHbiWYgftD+s2HpZq5pLFSdxBzL6QF34biUmoliZJmK6nipB8jyMPY5cw6vrMGqgym27MtzkmKDuP78Lx0ds7jUutp0qJR0YajircVPeICkemrF2nVwpgezJUC343AJ87ZYl8PlS6Gk10yrmc8S1tfjpAdtYb41Nz/8AulB8MygfC0Te3s4imsNxcAwHuCYFNxVv4mqdlkAkIi8eduQ795gxGxeH5cv8Ou619c3reHmDqqSJSJ7IRLfyiHvWxg366t+tecZk+Kh282YSiytKmN1cxiMja2Ki978R8Ye7A0uWQz8Xb4Lu+ZjDpaqs02SnuozfzEf9sTGzsrJTS1/AD66xs87bmWs+5Jq8DfSELzJC81b4sIe9Luk6QvASzb1EN+kWSbSZg4Zl+RHyiS6TJHXU1LWLqMtm7g4Uj43EduFwbDKFw6lC7upT5axPwA9D2NLUYekq/bkfZsPw71PpB/ADHSFjD0dBNny/bAVVPIscubyvHNMvF6hZvXrOcTb3z5jm331PEd26Or8WwyXUyXkTRmRxYj6jvirpXQlLEy7VjmVf2RLAcjkXzW/uwFhbHYq1VRSahxZnUFvEaE/CKN6Za4TMSYLuloiHx1J+cXbjmJyMLoiwAVZa5Zac2tZV9Y51wzCqjEps6YDd7NMYkb2JJCjx1gL86Lq5ZuGSLG5RcjeKm0AXTbtHPWctHLdklhA75SRnLE2BI4C27viN6HNqRTT2pJptLmkZSfuuNLd1/pFn7cbCyMSCszGXNQEK6i+h1sw4iApzos2hn09bKkq7GVNbIyEkrrezAcCO6OkorvYvovlUM3r5k0zpi+x2Mir32ubnzixYBRQXTsoFbLI3mUL+TG0X5HNXSFiH+kMUZZRzAMslCNb2NifC5MBIdIYvRUTHfYD+4P2glpDeRKbjkT4qIHOlZwv8NTJrlUm3Hgqj5wUypeWWqe6oX0FoAJ6Qqa6y5vIlD4HUfWNmweykuslmdPdjLRiioDbWwJJPC9xuiR2vlZ6V/wANm9Iw6I6rSfL4Ao48wwP+ERX62zNsd+cl1+i+bsVh7Ll/h1HeLhvW8BmK4ZNwhxNlOz0ztZlP3b7vPkfWLM62IjapFejnq27Ix8xqDGXz9NTU/V+8SwO7RUaVlKWWxIXPLPfa9vPdGroLxkpPmUjHszFzqOTLvt4g/CNWxs0mkQNwLDyvEH0WEjF5OXdmmA+GRv6RuZTzpjwxpGJGcN04K6n8SgK3yHrDqpy1tJ2TqygjuYcPWLX292VXEaYy7gTFu0tjwbke47o58paufh81pM1CLGzodNeY/wDNYA22M2nXIKSeckxOyCxsGA3eBEGfW6XvpzirqqdR1YuzhW5+y3nffEXU08uWLfxrFfdW5Pwa0Ub8Jb2Vbn0snK39IdSHqzlIICqNDfXWDijWyIOSqPhFSHKXGUHLcWvv38bRbko6DwEXZnJIrt7emu0mH9fTug9odpfEa2htsHWS6ukfDp2hUELzKnl3qYms0Bu0OETJMwVdNcEHMwXeDxYDiDxESg0w+uq8ErCQL20YG4SYl9LHh9IvTZvbuirUBSaqPYZpbkKwPLXRh3iK1o9oaHE5Yk1YWXMGgJNhfmjcPAxE4l0YzlOaRNV13gN2W9RcHxgOgzUoBcutudxaBXaTpDoaNTeYJszgksgknvbco74pb/UTEj2SBbvmaRK4X0XzCQaicqrxWWMzH9R0HxgIfF8WrMaqlGXQeygvkRTvJP1i1tmsDSjkiUmp3u1rFm5+Eb8HwiRSpkkoFHE8T4njD+IFX9IOxzBmq6dbg6zEA1B95efeIkthulfq1WnrQWUAKs0akDcA68fEQfQH7RbA01SS8s9S51uoBUnvXT4RIs/D8bpp6h5U9HB5ML+m+N1TiMmWpaZNRAOLMo+sc7VPRzWy2+zaW/erlT6GNadH+IORnygc2e9oA16QOlJDLamojmLAq87cAOIQcSddeHfwgejrZ3q719R2FVSZebw1c+W7xh5h+xdJQjr62crkagEWS45A6uYhdo9ppuIuKWlQrK48MwHFvdXugNNLObEcRaoIIRCGAPAL7A8SdYPSYisEwtKaWEXU72bmYkc0BFYymaRMH4G+UDXRlUqlQ4ZgMyWFza5BgpxD/wBN/wArfKKopil+3mtzW1x3i8c6z2WJzeXroJpoAuTYc+EA22e0Ymr/AAVMc7ObOwOgHK/zgVp6SU41rmy+6bg/Fok5FXR0inIwZu7tMfPcIqx4yXtqzXpbORJ1E1aOky31Vco72I/eM+g7CjMq3qSOzKS1/wAT6W8bAwIXqcTqFlS0JYmyqNyjizHgBxMdGbHbOJh9KshDdvadveY7z4covVCCB/abZGlr1tPTtAWVxo484IIUBSVf0JzL/Y1aFeAmIQfVSQY8oehOZf7arQLxCISfUkARd0KA5a23wWXR1zU0osVXJqxuSSLkwdSzoPAQL9LH+9pn/T+QglVwq3JsALk91oDZU1KS1LuwVRvJgQqMYqa2YZNIjBeJG+3NjuURqVJuKVORCVlLqTyX3iOZ4RaGE4bKppYlylsBvPEnmTxMAL4D0cyks9S2dvcGiDxO9oPJKqihFACgWAG4CNWeFngHOeK/6T8amSxLp5bFc9y5BsSAQAt+Wpg3zwL7bbOGsRGRgJiXtfcwNrju3CIAVs9WTqGslpnLJMZFZbmxDnLex4gmLlzxV+zmxs8VCTqphZCGUXzEkez4AHWLHzxI9xCs6uU8zfkRmt4C8Ugz1NX1lU005lN95HfZbbgIuqegdWRtVYFT4EWMVbV7C1ct2SU4aWx35sunDMOcAa9HuNvU0p6w3aW+QtxYWBBPfraCnPA9svg4o5Al3zMSWdubHl3AACJjrIDTi2FSKpck5AwG48R4HhFfYvsFOkN1tHMLW1ybnHcDuaLH6yF1kBWmCbV3bqqkZGBtmItryYH2TBWGjXtXsxLq1LLZZoHZa2/ubnAjsri0xHNJOuGUlVvvBG9D9IAjrz9m/wCVvlAf0dbPyq+qNPNLBTLZgV3gi1jBbXH7N/yt8oiuhH/eP/Sf6QEvWdCU4H7KrRl4Z0ZT8CRG/DuhN8wM+rXLxEtCSe67HT0i6oUBCbO7M0tCmSRLC3tmY6s3iYm4UKAUKFEHtZtFLoKdp8zU7lW9izcAICTrKyXKXPMmKi82YAepiCm7d4apsauXfxvHP2IV1Xi1QXmMW5C5yS14BRw+sOhsQ/Gcv8p/eA96SMQlT8SmTZTh0OSzLuNhrD/ayqKU2UffIXytc/KBDEaAyJ3VFr2K62tv7oJds0JkyzyYX81tAFuxFAsilQ27UwB2PjuHkIIesiG2fqg9NKYe4o9BYxIdZAOeshdZDbrIXWQDnrIXWQ26yPM8A56yF1kNs8LPAOeshdZDbPCzwDnrI86yG2eFngHPWQushtnhZ4Bz1kV30jUmSZLqU0YmxI95bFTB1ngL6SKkdXLl8SxbyAEA+ef1kkv7yZvURD9EuJyaatMyfMVE6thmbdc2sIkZCFaYKd4l/wCWAbBcNNRM6sMF0vci+7zgOlpO3WGsbCrlX72t84nqaoSYodHV1O4qQR6iOaH2Je2k5SfykfWNWCY3WYRUXUmx9tCTkcfv37xAdRwoitnsalVshKiUeyw1HFTxU94iVgFHOXSvjjVmIGQhukkmUoB0L37Z9Rb9MdAYtVdVImTfclu/8qkxzBsuhmVRmObkZnJ5sTv9TAG2EYesiWqLv3sebcTD6NImRkJkBXm1X+1t+mDCupRNlNLPFdDyPAwH7UH+1t+mDZToPAQA/sjjBp3alndkFuyT91uXgYPs8BmN4Ms8Zh2XG48D3GI/C9o5tKepqFZlGgP3gP8AMICw88NK+dNVc0pVcjerEi/gw3HyjRR4hLmrmluGHdv8xDjrICGk7Xyg2ScjynG8MLj1ETFNicqZqkxW8CIbV1FLnDLNQN8x4GBmt2NW+aTMK9zC/ow1EAc54WeK3NFiMj2Wcj8LZvnGP+nq9NCG80JgLKzx40y28xW3+mMQmaKG8kt84zTBK2frMmFR+Jj/AIRAGtZj9PL9uYt+QNz8IZUu0Myoa1PJOXi8w2UeAG/1hhh2yciXrMJmN3iy+n7mCJLKLKAAOA0EA6V9NTrHueG3WRF4nj8mQO02ZuCrv/pAS9TVpLQu7WUC5MV+jNiFVnYWlpbT8I3DxPGNcyZUYg+vYlg9+Uf9xgqoaRJKBEFgPUnmYDOsP2b/AJT8oENiP9oP5D9ILKs/Zv8AlPygR2LP9oP5D9ICw4jMfwxaiUV++LlD38vOHxmR4ZkBHdC2PtIq2pHPYnDQHhMS5FvEXHkIv+OVK6aaWvWaumSYk0eTBiPDQiOp5UwMoYbiAfWAHOkWdkw2pYf8sj10igdi/amHuUfExfPScL4ZU/k+sUJsg9us/T9YAwDx6HhoHjIPABm0h/tR/TBsh0HgIBtoD/aT+mDhDoPCAzvDerpJcxcrqCPiPAxuvCvADFRs9MltnkOfAmx9eMZS9o6qT2Z0vN3nQ+o0MEt4xdQdCAfGAY0210hvazIe8XHqIkZOMSX9manqB84jZ+DSG3oB4aRHzdlpZ9l2X0MAVrUKdzKfAiM80BB2WYezNH8pHyML/Vud/wA4f3oA3L24xreqQb3UeLCAz/Vqad84f3o9TZT3pvov7mAJZ+P06b5inw1+URdVtjLGktGc8z2R+8apOzMke0Wbzt8okafD5SezLUd9tYCCmV9bU6KCinl2R6nUw6oNmUU5prZjy4eZ4xPXj28B6ihRYAADgIyvGF4V4DCrP2b/AJT8oENkDaefyH6QWVR+zf8AKflAhsqftj+UwB2XjEvGgvGJeAFNsB9qp5r9Y6Y2bm56SnY7zJln1QRzLtY15ifl+sdLbJj+w03/ANEv/AIBtt7Jz4dVL/8AEx9Bf6Rzlsu9mccwvwJjp/HJHWU05PelOvqpEcr4A9ph71gC0TI9EyGgeMusgBnGz/aD+mDdDoPCAbFmvPv+WDZToPCA23hXjC8K8BneFeMLwrwGd4V4xQEmw3xMUlAq6tqfgICPk0rvuU258IdLhT8WAiVzQs0BFPhT8CDDSdTuntKfHhBBmjwtADd4V4k6ygB7SaHlwiJOmkBneFeMLwrwGd4V413hXgMao/Zt+U/KBDZo2mn8pgtqT2G/KflAdgDWm/pMAXmZGJmRo6yMS8APbSPeaO5RHU2ByclNJT3ZaD0URytXr1lSE95kX1IH1jrSSmVVXkAPQQGqunpLlu7sFRVJYncBbWORFciYTLvvOWw1tfTTwi7enLHjKky6RDYzbu/5FIAHmflAtsFhaypXXsO2+7uXhbxgAiWKt9FWYfBT+0O5OzFdN3yn/WbfOLc66IfaHaRKRLntO18q33955CAqrEaB6eb1Uy2ZbE2NxrrBNNxuSmma/wCXWIVZFTiM9nVMzG2YgWVRwuYK8P6NhvnTj+WWB/ia9/SAhG2lTgjH0jOXtHKO8MPjBmmwFEBqjnvLt9Ib1fR3SsPs2dD45h5hoCGp6uXMF0YGN94Gsf2dn0DB810J7LqLa8iOETWztYKi1/aX2h8j5wBHh0jKMx3n4CHmaNOeFngN2aFmjTnhZ4DdmhZo0ZoWaA35oj8RkXGcbxvhzmjwtAQd4bVNdLl+2wHdx9IbbRV/UdhfbO7uHOGOz2yk6tvNLZEv7bC5bnYcYDa+0ssblY+gjxNpZfFGHoYMabo8o1HbLueZbL/htGyb0f0RFgrr3hyfneAEjjEl0YBrEqdDpwgcwjC5lS5lygC1s2ptugzxHo2IF5M6/wCFxr/MP2gYp3qcNnhmTK1iLMNGXjYwGc3Zuul/8J/0m4+ENHNWmjK48UP7RauBY/LqkzpowtmUnVT9REn10BTGDVASskTJxIVZ8p3JG5VdSxI8BHWcuYGAZSCCAQRuIO4xz10hYUrKKlBZl7L24g7j5fWLC6GMeNRRmQ5u8ghRzKH2PSxEBXHTJUF8TZOCJLUeYv8AWCemYIioNyqB6C0QHTZh7S8QE37s2WpU966N9IxTaGUJSuzi5A7I1a/EWgCKorBLRnbcoJPlFb0smZiNVqbA6k78qjgIzxbad5yNLCBVPG9zaJ/o9pwst5vFmCjwUfufhAG+H00uRLEuUoVR8e88zDoTojROjLroCR66PeuiO66PeugHGISEnS2lOLqwI/rFQ4a7UdWUbgxRu8X0PyMWv10Vpt/Ly1QYfeRT5gkQBtnhXiGo8aksi3mKGyi4J42h0tfLO6Yn8wgH2aFnhqKhT99fURl1o5j1EA4zws0NjOX3h6iMWqkH31/mEA6zR4z2BJ3DWGL4lKG+Yn8wiOxXG5PVOEmKWKkADnAD9PLaurAvBm17kG/4fOLipwstFloLKoAA7hFY9HEsdbMmcVQAfqJ/7YsProB/10eGdDDro866Af8AXQxxahl1Msy5igg7jxU8xGPXRj10BV0h5mH1ZUm4Bs3AMp4xZaVIIBB0IuIDOkSQCZU0bzmU/Ar/AJoj8L2qaWqI6ZlUWuDrbw4wBvi9pkiYh4o3yJEMugioK1k1ODytf0tcfOI7EMelGQ7I4JZSoHG5FtREz0DYezVE+ot2UQID+Jje3oIC0dstlpWIyOqc5WXVHtcq31HOKrpOhaqMy0yolKl/aUMzEdy6W9YveFAUf0nbGU9Dh8oyE1E0CY51Zsym1zwFxuiC2MqR/D5eKu1/PURe202CpWU0ymfQOuh5MPZPrHNlfglfQzWkmXMVjoCisQ4G4qQNf6wBhWY1KlGzzADy3n0Eb6XEEmLmRgw7j84jNmOiqsqgZlQTIQi4zC7seHZvoPGIfFNjsSoZpVZU1gdA8tWZWH6b28DAE9fi8uSLzGtfcN59I9ocXlThdHB5jcR5RD7PdGlfWOHnK0lDa7TPbI45VOt/GMdpujuuoJmeSrzpepEyWpzAcmUag/CAJuugC22qBMqFVdSqgacyb2hqcZq75Ltm3WynN6WvBt0ddHk+fOWqq0ZJasHCuLM7bxodQL84DNOhipZFdamXdlDFSrC1xe17m8NKjobxAew8l/1FfmI6DhQHOb9EeKD7ko+EwfURoPRXiv8AyV//AEWOk4UBzavRVih/4SDxmLDheiDE+Ukf9T+kdFQoCgZPQxWkdqbJXzY/IRninQ/OkU8ycalGKIWyKja21tcn6Rfca5ihgVIuCCCOYOhEBzHsHUhZkxCdWVSP0k3/AMUG3XRAbb9H9VRTmnUyO8ksWVkBLJ+FgNbd+6BhMYrHPVqXLbrKpLegF4A3r8blSdJj2PIan0EbaHFJc5c0trjlxHiOERWy3RjWVjGZUZpCb8zi7t4KdR4mGeN9HuJUTlkR5ijdMlAnTvUaiAIKzE5coXmOFvu5nwEYUeLypv8A6bgnlx9IgMC2ExGvmAvLeWv3pkxSth3KbEnwh3tP0Z1tEesk5p6DXNLBzr4qNfSAabdVAMuWnEsW8gtv80GOxGwNNXYUrTVKTGaYUmKO0BewuPvDTdADgmzVbiM9UyvYWDO6kKi8b3490dL4Th6U8lJCDsooUeUBSbdC1X1mUVEopf2rNe35efnFwbMYBKoadaeVuGrMd7NxYxMwoD//2Q==;" parent="1" vertex="1">
                    <mxGeometry x="827" y="223" width="125.5" height="125.5" as="geometry"/>
                </mxCell>
                <mxCell id="QpuBEoRMAiUXIP9vKoB7-15" value="&lt;b&gt;BACK END&amp;nbsp;&lt;/b&gt;" style="text;html=1;align=center;verticalAlign=middle;resizable=0;points=[];autosize=1;strokeColor=none;fillColor=none;fontSize=15;" parent="1" vertex="1">
                    <mxGeometry x="790" y="100" width="100" height="20" as="geometry"/>
                </mxCell>
                <mxCell id="QpuBEoRMAiUXIP9vKoB7-16" value="DB" style="shape=cylinder3;whiteSpace=wrap;html=1;boundedLbl=1;backgroundOutline=1;size=15;fontSize=15;" parent="1" vertex="1">
                    <mxGeometry x="870" y="660" width="220" height="110" as="geometry"/>
                </mxCell>
                <mxCell id="QpuBEoRMAiUXIP9vKoB7-18" value="" style="endArrow=classic;startArrow=classic;html=1;rounded=0;fontSize=15;" parent="1" edge="1">
                    <mxGeometry width="50" height="50" relative="1" as="geometry">
                        <mxPoint x="960" y="600" as="sourcePoint"/>
                        <mxPoint x="960.13" y="440" as="targetPoint"/>
                    </mxGeometry>
                </mxCell>
                <mxCell id="10" style="edgeStyle=none;html=1;entryX=0.5;entryY=0;entryDx=0;entryDy=0;" edge="1" parent="1" source="2" target="9">
                    <mxGeometry relative="1" as="geometry"/>
                </mxCell>
                <mxCell id="2" value="ユーザ認証開始" style="rounded=1;whiteSpace=wrap;html=1;" vertex="1" parent="1">
                    <mxGeometry x="1520" y="140" width="130" height="70" as="geometry"/>
                </mxCell>
                <mxCell id="3" value="&lt;font style=&quot;font-size: 20px&quot;&gt;ユーザ機能&lt;/font&gt;" style="text;html=1;align=center;verticalAlign=middle;resizable=0;points=[];autosize=1;strokeColor=none;fillColor=none;" vertex="1" parent="1">
                    <mxGeometry x="1430" y="60" width="120" height="20" as="geometry"/>
                </mxCell>
                <mxCell id="23" value="" style="edgeStyle=none;html=1;" edge="1" parent="1" source="5" target="22">
                    <mxGeometry relative="1" as="geometry"/>
                </mxCell>
                <mxCell id="5" value="ログインページへ" style="rounded=1;whiteSpace=wrap;html=1;" vertex="1" parent="1">
                    <mxGeometry x="1780" y="296.5" width="130" height="70" as="geometry"/>
                </mxCell>
                <mxCell id="7" value="登録済み" style="text;html=1;align=center;verticalAlign=middle;resizable=0;points=[];autosize=1;strokeColor=none;fillColor=none;" vertex="1" parent="1">
                    <mxGeometry x="1800" y="80" width="60" height="20" as="geometry"/>
                </mxCell>
                <mxCell id="8" value="" style="endArrow=none;html=1;" edge="1" parent="1">
                    <mxGeometry width="50" height="50" relative="1" as="geometry">
                        <mxPoint x="1720" y="850" as="sourcePoint"/>
                        <mxPoint x="1720" y="80" as="targetPoint"/>
                    </mxGeometry>
                </mxCell>
                <mxCell id="11" style="edgeStyle=none;html=1;" edge="1" parent="1" source="9" target="5">
                    <mxGeometry relative="1" as="geometry"/>
                </mxCell>
                <mxCell id="12" value="YES" style="edgeLabel;html=1;align=center;verticalAlign=middle;resizable=0;points=[];" vertex="1" connectable="0" parent="11">
                    <mxGeometry x="-0.2272" y="-3" relative="1" as="geometry">
                        <mxPoint as="offset"/>
                    </mxGeometry>
                </mxCell>
                <mxCell id="14" value="" style="edgeStyle=none;html=1;" edge="1" parent="1" source="9" target="13">
                    <mxGeometry relative="1" as="geometry"/>
                </mxCell>
                <mxCell id="15" value="NO" style="edgeLabel;html=1;align=center;verticalAlign=middle;resizable=0;points=[];" vertex="1" connectable="0" parent="14">
                    <mxGeometry x="-0.3524" y="-1" relative="1" as="geometry">
                        <mxPoint as="offset"/>
                    </mxGeometry>
                </mxCell>
                <mxCell id="9" value="登録済みか" style="rhombus;whiteSpace=wrap;html=1;" vertex="1" parent="1">
                    <mxGeometry x="1542.5" y="288" width="85" height="87" as="geometry"/>
                </mxCell>
                <mxCell id="25" value="" style="edgeStyle=none;html=1;" edge="1" parent="1" source="13" target="24">
                    <mxGeometry relative="1" as="geometry"/>
                </mxCell>
                <mxCell id="13" value="登録ページ" style="whiteSpace=wrap;html=1;" vertex="1" parent="1">
                    <mxGeometry x="1525" y="480" width="120" height="60" as="geometry"/>
                </mxCell>
                <mxCell id="33" value="" style="edgeStyle=none;html=1;" edge="1" parent="1" source="22" target="32">
                    <mxGeometry relative="1" as="geometry"/>
                </mxCell>
                <mxCell id="22" value="MailとPass&lt;br&gt;を入力" style="whiteSpace=wrap;html=1;rounded=1;" vertex="1" parent="1">
                    <mxGeometry x="1785" y="480" width="120" height="60" as="geometry"/>
                </mxCell>
                <mxCell id="27" value="" style="edgeStyle=none;html=1;" edge="1" parent="1" source="24" target="26">
                    <mxGeometry relative="1" as="geometry"/>
                </mxCell>
                <mxCell id="24" value="名前とパスワード&lt;br&gt;入力" style="whiteSpace=wrap;html=1;" vertex="1" parent="1">
                    <mxGeometry x="1525" y="620" width="120" height="60" as="geometry"/>
                </mxCell>
                <mxCell id="28" style="edgeStyle=none;html=1;" edge="1" parent="1" source="26">
                    <mxGeometry relative="1" as="geometry">
                        <mxPoint x="2090" y="790" as="targetPoint"/>
                    </mxGeometry>
                </mxCell>
                <mxCell id="26" value="メールアドレスから&lt;br&gt;認証" style="whiteSpace=wrap;html=1;" vertex="1" parent="1">
                    <mxGeometry x="1525" y="760" width="120" height="60" as="geometry"/>
                </mxCell>
                <mxCell id="29" value="登録完了" style="whiteSpace=wrap;html=1;" vertex="1" parent="1">
                    <mxGeometry x="2090" y="760" width="120" height="60" as="geometry"/>
                </mxCell>
                <mxCell id="35" value="" style="edgeStyle=none;html=1;" edge="1" parent="1" source="32" target="34">
                    <mxGeometry relative="1" as="geometry"/>
                </mxCell>
                <mxCell id="36" value="YES" style="edgeLabel;html=1;align=center;verticalAlign=middle;resizable=0;points=[];" vertex="1" connectable="0" parent="35">
                    <mxGeometry x="-0.3868" y="4" relative="1" as="geometry">
                        <mxPoint as="offset"/>
                    </mxGeometry>
                </mxCell>
                <mxCell id="32" value="正しいか" style="rhombus;whiteSpace=wrap;html=1;rounded=1;" vertex="1" parent="1">
                    <mxGeometry x="1805" y="610" width="80" height="80" as="geometry"/>
                </mxCell>
                <mxCell id="34" value="認証完了" style="whiteSpace=wrap;html=1;rounded=1;" vertex="1" parent="1">
                    <mxGeometry x="2090" y="620" width="120" height="60" as="geometry"/>
                </mxCell>
                <mxCell id="38" value="" style="endArrow=none;html=1;" edge="1" parent="1">
                    <mxGeometry width="50" height="50" relative="1" as="geometry">
                        <mxPoint x="1730" y="650" as="sourcePoint"/>
                        <mxPoint x="1805" y="650" as="targetPoint"/>
                    </mxGeometry>
                </mxCell>
                <mxCell id="39" value="NO" style="edgeLabel;html=1;align=center;verticalAlign=middle;resizable=0;points=[];" vertex="1" connectable="0" parent="38">
                    <mxGeometry x="-0.3176" y="2" relative="1" as="geometry">
                        <mxPoint as="offset"/>
                    </mxGeometry>
                </mxCell>
                <mxCell id="40" value="" style="endArrow=none;html=1;" edge="1" parent="1">
                    <mxGeometry width="50" height="50" relative="1" as="geometry">
                        <mxPoint x="1730" y="650" as="sourcePoint"/>
                        <mxPoint x="1730" y="510" as="targetPoint"/>
                    </mxGeometry>
                </mxCell>
                <mxCell id="41" value="" style="endArrow=classic;html=1;entryX=0;entryY=0.5;entryDx=0;entryDy=0;" edge="1" parent="1" target="22">
                    <mxGeometry width="50" height="50" relative="1" as="geometry">
                        <mxPoint x="1730" y="510" as="sourcePoint"/>
                        <mxPoint x="1840" y="540" as="targetPoint"/>
                    </mxGeometry>
                </mxCell>
                <mxCell id="42" value="" style="endArrow=none;html=1;" edge="1" parent="1">
                    <mxGeometry width="50" height="50" relative="1" as="geometry">
                        <mxPoint x="1360" y="988" as="sourcePoint"/>
                        <mxPoint x="1360" y="40" as="targetPoint"/>
                    </mxGeometry>
                </mxCell>
            </root>
        </mxGraphModel>
    </diagram>
</mxfile>